<?xml version="1.0" encoding="utf-8"?>
<svg xmlns="http://www.w3.org/2000/svg">
<symbol id="box" viewBox="0 0 24 24">
  <path style="stroke-linecap: round; stroke-linejoin: round;" d="M20.5 8v8.2c0 1.68 0 2.52-.327 3.162a3 3 0 0 1-1.311 1.311C18.22 21 17.38 21 15.7 21H8.3c-1.68 0-2.52 0-3.162-.327a3 3 0 0 1-1.311-1.311C3.5 18.72 3.5 17.88 3.5 16.2V8m.1-5h16.8c.56 0 .84 0 1.054.109a1 1 0 0 1 .437.437C22 3.76 22 4.04 22 4.6v1.8c0 .56 0 .84-.109 1.054a1 1 0 0 1-.437.437C21.24 8 20.96 8 20.4 8H3.6c-.56 0-.84 0-1.054-.109a1 1 0 0 1-.437-.437C2 7.24 2 6.96 2 6.4V4.6c0-.56 0-.84.109-1.054a1 1 0 0 1 .437-.437C2.76 3 3.04 3 3.6 3Zm6 8.5h4.8c.56 0 .84 0 1.054.109a1 1 0 0 1 .437.437C16 12.26 16 12.54 16 13.1v.8c0 .56 0 .84-.109 1.054a1 1 0 0 1-.437.437c-.214.109-.494.109-1.054.109H9.6c-.56 0-.84 0-1.054-.109a1 1 0 0 1-.437-.437C8 14.74 8 14.46 8 13.9v-.8c0-.56 0-.84.109-1.054a1 1 0 0 1 .437-.437C8.76 11.5 9.04 11.5 9.6 11.5Z"/>
</symbol>
<symbol id="clipboard-attachment" viewBox="0 0 24 24">
    <path style="stroke-linecap: round; stroke-linejoin: round;" d="M21 8v8l-1 3-1 2H5l-1-2V8m0-5h17l1 1v3l-1 1H3L2 7V4l1-1zm6 9h6v3h-1l-1 1h-4l-1-1H8v-3h2"/>
</symbol>
<symbol id="clipboard-check" viewBox="0 0 24 24">
  <path style="stroke-linecap: round; stroke-linejoin: round;" d="M16 4c.93 0 1.395 0 1.776.102a3 3 0 0 1 2.122 2.122C20 6.605 20 7.07 20 8v9.2c0 1.68 0 2.52-.327 3.162a3 3 0 0 1-1.311 1.311C17.72 22 16.88 22 15.2 22H8.8c-1.68 0-2.52 0-3.162-.327a3 3 0 0 1-1.311-1.311C4 19.72 4 18.88 4 17.2V8c0-.93 0-1.395.102-1.776a3 3 0 0 1 2.122-2.122C6.605 4 7.07 4 8 4m1 11 2 2 4.5-4.5M9.6 6h4.8c.56 0 .84 0 1.054-.109a1 1 0 0 0 .437-.437C16 5.24 16 4.96 16 4.4v-.8c0-.56 0-.84-.109-1.054a1 1 0 0 0-.437-.437C15.24 2 14.96 2 14.4 2H9.6c-.56 0-.84 0-1.054.109a1 1 0 0 0-.437.437C8 2.76 8 3.04 8 3.6v.8c0 .56 0 .84.109 1.054a1 1 0 0 0 .437.437C8.76 6 9.04 6 9.6 6Z"/>
</symbol>
<symbol id="clipboard-download" viewBox="0 0 24 24">
  <path style="stroke-linecap: round; stroke-linejoin: round;" d="M12.5 16.5V11m0 0-2.9 2.5m2.9-2.5 2.954 2.5M16 4c.93 0 1.395 0 1.776.102a3 3 0 0 1 2.122 2.122C20 6.605 20 7.07 20 8v9.2c0 1.68 0 2.52-.327 3.162a3 3 0 0 1-1.311 1.311C17.72 22 16.88 22 15.2 22H8.8c-1.68 0-2.52 0-3.162-.327a3 3 0 0 1-1.311-1.311C4 19.72 4 18.88 4 17.2V8c0-.93 0-1.395.102-1.776a3 3 0 0 1 2.122-2.122C6.605 4 7.07 4 8 4m1.6 2h4.8c.56 0 .84 0 1.054-.109a1 1 0 0 0 .437-.437C16 5.24 16 4.96 16 4.4v-.8c0-.56 0-.84-.109-1.054a1 1 0 0 0-.437-.437C15.24 2 14.96 2 14.4 2H9.6c-.56 0-.84 0-1.054.109a1 1 0 0 0-.437.437C8 2.76 8 3.04 8 3.6v.8c0 .56 0 .84.109 1.054a1 1 0 0 0 .437.437C8.76 6 9.04 6 9.6 6Z"/>
</symbol>
<symbol id="clipboard-minus" viewBox="0 0 24 24">
  <path style="stroke-linecap: round; stroke-linejoin: round;" d="M16 4c.93 0 1.395 0 1.776.102a3 3 0 0 1 2.122 2.122C20 6.605 20 7.07 20 8v9.2c0 1.68 0 2.52-.327 3.162a3 3 0 0 1-1.311 1.311C17.72 22 16.88 22 15.2 22H8.8c-1.68 0-2.52 0-3.162-.327a3 3 0 0 1-1.311-1.311C4 19.72 4 18.88 4 17.2V8c0-.93 0-1.395.102-1.776a3 3 0 0 1 2.122-2.122C6.605 4 7.07 4 8 4m1 10h6M9.6 6h4.8c.56 0 .84 0 1.054-.109a1 1 0 0 0 .437-.437C16 5.24 16 4.96 16 4.4v-.8c0-.56 0-.84-.109-1.054a1 1 0 0 0-.437-.437C15.24 2 14.96 2 14.4 2H9.6c-.56 0-.84 0-1.054.109a1 1 0 0 0-.437.437C8 2.76 8 3.04 8 3.6v.8c0 .56 0 .84.109 1.054a1 1 0 0 0 .437.437C8.76 6 9.04 6 9.6 6Z"/>
</symbol>
<symbol id="clipboard-plus" viewBox="0 0 24 24">
  <path style="stroke-linecap: round; stroke-linejoin: round;" d="M16 4c.93 0 1.395 0 1.776.102a3 3 0 0 1 2.122 2.122C20 6.605 20 7.07 20 8v9.2c0 1.68 0 2.52-.327 3.162a3 3 0 0 1-1.311 1.311C17.72 22 16.88 22 15.2 22H8.8c-1.68 0-2.52 0-3.162-.327a3 3 0 0 1-1.311-1.311C4 19.72 4 18.88 4 17.2V8c0-.93 0-1.395.102-1.776a3 3 0 0 1 2.122-2.122C6.605 4 7.07 4 8 4m4 13v-6m-3 3h6M9.6 6h4.8c.56 0 .84 0 1.054-.109a1 1 0 0 0 .437-.437C16 5.24 16 4.96 16 4.4v-.8c0-.56 0-.84-.109-1.054a1 1 0 0 0-.437-.437C15.24 2 14.96 2 14.4 2H9.6c-.56 0-.84 0-1.054.109a1 1 0 0 0-.437.437C8 2.76 8 3.04 8 3.6v.8c0 .56 0 .84.109 1.054a1 1 0 0 0 .437.437C8.76 6 9.04 6 9.6 6Z"/>
</symbol>
<symbol id="clipboard-x" viewBox="0 0 24 24">
  <path style="stroke-linecap: round; stroke-linejoin: round;" d="M16 4c.93 0 1.395 0 1.776.102a3 3 0 0 1 2.122 2.122C20 6.605 20 7.07 20 8v9.2c0 1.68 0 2.52-.327 3.162a3 3 0 0 1-1.311 1.311C17.72 22 16.88 22 15.2 22H8.8c-1.68 0-2.52 0-3.162-.327a3 3 0 0 1-1.311-1.311C4 19.72 4 18.88 4 17.2V8c0-.93 0-1.395.102-1.776a3 3 0 0 1 2.122-2.122C6.605 4 7.07 4 8 4m1.5 8 5 5m0-5-5 5m.1-11h4.8c.56 0 .84 0 1.054-.109a1 1 0 0 0 .437-.437C16 5.24 16 4.96 16 4.4v-.8c0-.56 0-.84-.109-1.054a1 1 0 0 0-.437-.437C15.24 2 14.96 2 14.4 2H9.6c-.56 0-.84 0-1.054.109a1 1 0 0 0-.437.437C8 2.76 8 3.04 8 3.6v.8c0 .56 0 .84.109 1.054a1 1 0 0 0 .437.437C8.76 6 9.04 6 9.6 6Z"/>
</symbol>
<symbol id="clipboard" viewBox="0 0 24 24">
  <path style="stroke-linecap: round; stroke-linejoin: round;" d="M16 4c.93 0 1.395 0 1.776.102a3 3 0 0 1 2.122 2.122C20 6.605 20 7.07 20 8v9.2c0 1.68 0 2.52-.327 3.162a3 3 0 0 1-1.311 1.311C17.72 22 16.88 22 15.2 22H8.8c-1.68 0-2.52 0-3.162-.327a3 3 0 0 1-1.311-1.311C4 19.72 4 18.88 4 17.2V8c0-.93 0-1.395.102-1.776a3 3 0 0 1 2.122-2.122C6.605 4 7.07 4 8 4m1.6 2h4.8c.56 0 .84 0 1.054-.109a1 1 0 0 0 .437-.437C16 5.24 16 4.96 16 4.4v-.8c0-.56 0-.84-.109-1.054a1 1 0 0 0-.437-.437C15.24 2 14.96 2 14.4 2H9.6c-.56 0-.84 0-1.054.109a1 1 0 0 0-.437.437C8 2.76 8 3.04 8 3.6v.8c0 .56 0 .84.109 1.054a1 1 0 0 0 .437.437C8.76 6 9.04 6 9.6 6Z"/>
</symbol>
<symbol id="file-01" viewBox="0 0 24 24">
  <path style="stroke-linecap: round; stroke-linejoin: round;" d="M4 6.8c0-1.68 0-2.52.327-3.162a3 3 0 0 1 1.311-1.311C6.28 2 7.12 2 8.8 2h6.4c1.68 0 2.52 0 3.162.327a3 3 0 0 1 1.311 1.311C20 4.28 20 5.12 20 6.8v10.4c0 1.68 0 2.52-.327 3.162a3 3 0 0 1-1.311 1.311C17.72 22 16.88 22 15.2 22H8.8c-1.68 0-2.52 0-3.162-.327a3 3 0 0 1-1.311-1.311C4 19.72 4 18.88 4 17.2V6.8Z"/>
</symbol>
<symbol id="file-02" viewBox="0 0 24 24">
  <path style="stroke-linecap: round; stroke-linejoin: round;" d="M14 11H8m2 4H8m8-8H8m12-.2v10.4c0 1.68 0 2.52-.327 3.162a3 3 0 0 1-1.311 1.311C17.72 22 16.88 22 15.2 22H8.8c-1.68 0-2.52 0-3.162-.327a3 3 0 0 1-1.311-1.311C4 19.72 4 18.88 4 17.2V6.8c0-1.68 0-2.52.327-3.162a3 3 0 0 1 1.311-1.311C6.28 2 7.12 2 8.8 2h6.4c1.68 0 2.52 0 3.162.327a3 3 0 0 1 1.311 1.311C20 4.28 20 5.12 20 6.8Z"/>
</symbol>
<symbol id="file-03" viewBox="0 0 24 24">
  <path style="stroke-linecap: round; stroke-linejoin: round;" d="M8 14v4m8-6v6M12 8v10m8-11.2v10.4c0 1.68 0 2.52-.327 3.162a3 3 0 0 1-1.311 1.311C17.72 22 16.88 22 15.2 22H8.8c-1.68 0-2.52 0-3.162-.327a3 3 0 0 1-1.311-1.311C4 19.72 4 18.88 4 17.2V6.8c0-1.68 0-2.52.327-3.162a3 3 0 0 1 1.311-1.311C6.28 2 7.12 2 8.8 2h6.4c1.68 0 2.52 0 3.162.327a3 3 0 0 1 1.311 1.311C20 4.28 20 5.12 20 6.8Z"/>
</symbol>
<symbol id="file-04" viewBox="0 0 24 24">
  <path style="stroke-linecap: round; stroke-linejoin: round;" d="M14 2.27V6.4c0 .56 0 .84.109 1.054a1 1 0 0 0 .437.437C14.76 8 15.04 8 15.6 8h4.13M20 9.988V17.2c0 1.68 0 2.52-.327 3.162a3 3 0 0 1-1.311 1.311C17.72 22 16.88 22 15.2 22H8.8c-1.68 0-2.52 0-3.162-.327a3 3 0 0 1-1.311-1.311C4 19.72 4 18.88 4 17.2V6.8c0-1.68 0-2.52.327-3.162a3 3 0 0 1 1.311-1.311C6.28 2 7.12 2 8.8 2h3.212c.733 0 1.1 0 1.446.083.306.073.598.195.867.36.303.185.562.444 1.08.963l3.19 3.188c.518.519.777.778.963 1.081a3 3 0 0 1 .36.867c.082.346.082.712.082 1.446Z"/>
</symbol>
<symbol id="file-05" viewBox="0 0 24 24">
  <path style="stroke-linecap: round; stroke-linejoin: round;" d="M14 2.27V6.4c0 .56 0 .84.109 1.054a1 1 0 0 0 .437.437c.214.11.494.11 1.054.11h4.13M14 17H8m8-4H8m12-3.012V17.2c0 1.68 0 2.52-.327 3.162a3 3 0 0 1-1.311 1.311C17.72 22 16.88 22 15.2 22H8.8c-1.68 0-2.52 0-3.162-.327a3 3 0 0 1-1.311-1.311C4 19.72 4 18.88 4 17.2V6.8c0-1.68 0-2.52.327-3.162a3 3 0 0 1 1.311-1.311C6.28 2 7.12 2 8.8 2h3.212c.733 0 1.1 0 1.446.083.306.073.598.195.867.36.303.185.562.444 1.08.963l3.19 3.188c.518.519.777.778.963 1.081a3 3 0 0 1 .36.867c.082.346.082.712.082 1.446Z"/>
</symbol>
<symbol id="file-06" viewBox="0 0 24 24">
  <path style="stroke-linecap: round; stroke-linejoin: round;" d="M14 2.27V6.4c0 .56 0 .84.109 1.054a1 1 0 0 0 .437.437c.214.11.494.11 1.054.11h4.13M16 13H8m8 4H8m2-8H8m6-7H8.8c-1.68 0-2.52 0-3.162.327a3 3 0 0 0-1.311 1.311C4 4.28 4 5.12 4 6.8v10.4c0 1.68 0 2.52.327 3.162a3 3 0 0 0 1.311 1.311C6.28 22 7.12 22 8.8 22h6.4c1.68 0 2.52 0 3.162-.327a3 3 0 0 0 1.311-1.311C20 19.72 20 18.88 20 17.2V8l-6-6Z"/>
</symbol>
<symbol id="file-07" viewBox="0 0 24 24">
  <path style="stroke-linecap: round; stroke-linejoin: round;" d="M14 2.27V6.4c0 .56 0 .84.109 1.054a1 1 0 0 0 .437.437c.214.11.494.11 1.054.11h4.13M8 15v3m8-5v5m-4-7.5V18m8-8.012V17.2c0 1.68 0 2.52-.327 3.162a3 3 0 0 1-1.311 1.311C17.72 22 16.88 22 15.2 22H8.8c-1.68 0-2.52 0-3.162-.327a3 3 0 0 1-1.311-1.311C4 19.72 4 18.88 4 17.2V6.8c0-1.68 0-2.52.327-3.162a3 3 0 0 1 1.311-1.311C6.28 2 7.12 2 8.8 2h3.212c.733 0 1.1 0 1.446.083.306.073.598.195.867.36.303.185.562.444 1.08.963l3.19 3.188c.518.519.777.778.963 1.081a3 3 0 0 1 .36.867c.082.346.082.712.082 1.446Z"/>
</symbol>
<symbol id="file-attachment-01" viewBox="0 0 24 24">
  <path style="stroke-linecap: round; stroke-linejoin: round;" d="M6 10V4.5a1.5 1.5 0 1 1 3 0V10a3 3 0 1 1-6 0V6m9.5-4h2.7c1.68 0 2.52 0 3.162.327a3 3 0 0 1 1.311 1.311C20 4.28 20 5.12 20 6.8v10.4c0 1.68 0 2.52-.327 3.162a3 3 0 0 1-1.311 1.311C17.72 22 16.88 22 15.2 22H8.8c-1.68 0-2.52 0-3.162-.327a3 3 0 0 1-1.311-1.311C4 19.72 4 18.88 4 17.2v-.7"/>
</symbol>
<symbol id="file-attachment-02" viewBox="0 0 24 24">
  <path style="stroke-linecap: round; stroke-linejoin: round;" d="M12.5 2h2.7c1.68 0 2.52 0 3.162.327a3 3 0 0 1 1.311 1.311C20 4.28 20 5.12 20 6.8v10.4c0 1.68 0 2.52-.327 3.162a3 3 0 0 1-1.311 1.311C17.72 22 16.88 22 15.2 22H8.8c-1.68 0-2.52 0-3.162-.327a3 3 0 0 1-1.311-1.311C4 19.72 4 18.88 4 17.2v-.7M16 13h-4.5M16 9h-3.5m3.5 8H8m-2-7V4.5a1.5 1.5 0 1 1 3 0V10a3 3 0 1 1-6 0V6"/>
</symbol>
<symbol id="file-attachment-03" viewBox="0 0 24 24">
  <path style="stroke-linecap: round; stroke-linejoin: round;" d="M20 7v-.2c0-1.68 0-2.52-.327-3.162a3 3 0 0 0-1.311-1.311C17.72 2 16.88 2 15.2 2H8.8c-1.68 0-2.52 0-3.162.327a3 3 0 0 0-1.311 1.311C4 4.28 4 5.12 4 6.8v10.4c0 1.68 0 2.52.327 3.162a3 3 0 0 0 1.311 1.311C6.28 22 7.12 22 8.8 22h3.7m5.5-4v-5.5a1.5 1.5 0 0 1 3 0V18a3 3 0 1 1-6 0v-4"/>
</symbol>
<symbol id="file-attachment-04" viewBox="0 0 24 24">
  <path style="stroke-linecap: round; stroke-linejoin: round;" d="M20 7v-.2c0-1.68 0-2.52-.327-3.162a3 3 0 0 0-1.311-1.311C17.72 2 16.88 2 15.2 2H8.8c-1.68 0-2.52 0-3.162.327a3 3 0 0 0-1.311 1.311C4 4.28 4 5.12 4 6.8v10.4c0 1.68 0 2.52.327 3.162a3 3 0 0 0 1.311 1.311C6.28 22 7.12 22 8.8 22h3.7m0-11H8m3.5 4H8m8-8H8m10 11v-5.5a1.5 1.5 0 0 1 3 0V18a3 3 0 1 1-6 0v-4"/>
</symbol>
<symbol id="file-attachment-05" viewBox="0 0 24 24">
  <path style="stroke-linecap: round; stroke-linejoin: round;" d="M12 14V8.5a1.5 1.5 0 0 1 3 0V14a3 3 0 1 1-6 0v-4m-.2 12h6.4c1.68 0 2.52 0 3.162-.327a3 3 0 0 0 1.311-1.311C20 19.72 20 18.88 20 17.2V6.8c0-1.68 0-2.52-.327-3.162a3 3 0 0 0-1.311-1.311C17.72 2 16.88 2 15.2 2H8.8c-1.68 0-2.52 0-3.162.327a3 3 0 0 0-1.311 1.311C4 4.28 4 5.12 4 6.8v10.4c0 1.68 0 2.52.327 3.162a3 3 0 0 0 1.311 1.311C6.28 22 7.12 22 8.8 22Z"/>
</symbol>
<symbol id="file-check-01" viewBox="0 0 24 24">
  <path style="stroke-linecap: round; stroke-linejoin: round;" d="M20 12.5V6.8c0-1.68 0-2.52-.327-3.162a3 3 0 0 0-1.311-1.311C17.72 2 16.88 2 15.2 2H8.8c-1.68 0-2.52 0-3.162.327a3 3 0 0 0-1.311 1.311C4 4.28 4 5.12 4 6.8v10.4c0 1.68 0 2.52.327 3.162a3 3 0 0 0 1.311 1.311C6.28 22 7.12 22 8.8 22H12m2.5-3 2 2 4.5-4.5"/>
</symbol>
<symbol id="file-check-02" viewBox="0 0 24 24">
  <path style="stroke-linecap: round; stroke-linejoin: round;" d="M20 12.5V6.8c0-1.68 0-2.52-.327-3.162a3 3 0 0 0-1.311-1.311C17.72 2 16.88 2 15.2 2H8.8c-1.68 0-2.52 0-3.162.327a3 3 0 0 0-1.311 1.311C4 4.28 4 5.12 4 6.8v10.4c0 1.68 0 2.52.327 3.162a3 3 0 0 0 1.311 1.311C6.28 22 7.12 22 8.8 22H12m2-11H8m2 4H8m8-8H8m6.5 12 2 2 4.5-4.5"/>
</symbol>
<symbol id="file-check-03" viewBox="0 0 24 24">
  <path style="stroke-linecap: round; stroke-linejoin: round;" d="M14 2.27V6.4c0 .56 0 .84.109 1.054a1 1 0 0 0 .437.437c.214.11.494.11 1.054.11h4.13M9 16l2 2 4.5-4.5M14 2H8.8c-1.68 0-2.52 0-3.162.327a3 3 0 0 0-1.311 1.311C4 4.28 4 5.12 4 6.8v10.4c0 1.68 0 2.52.327 3.162a3 3 0 0 0 1.311 1.311C6.28 22 7.12 22 8.8 22h6.4c1.68 0 2.52 0 3.162-.327a3 3 0 0 0 1.311-1.311C20 19.72 20 18.88 20 17.2V8l-6-6Z"/>
</symbol>
<symbol id="file-download-01" viewBox="0 0 24 24">
  <path style="stroke-linecap: round; stroke-linejoin: round;" d="M20 12.5V6.8c0-1.68 0-2.52-.327-3.162a3 3 0 0 0-1.311-1.311C17.72 2 16.88 2 15.2 2H8.8c-1.68 0-2.52 0-3.162.327a3 3 0 0 0-1.311 1.311C4 4.28 4 5.12 4 6.8v10.4c0 1.68 0 2.52.327 3.162a3 3 0 0 0 1.311 1.311C6.28 22 7.12 22 8.8 22h3.7m2.5-3 3 3m0 0 3-3m-3 3v-6"/>
</symbol>
<symbol id="file-download-02" viewBox="0 0 24 24">
  <path style="stroke-linecap: round; stroke-linejoin: round;" d="M20 12.5V6.8c0-1.68 0-2.52-.327-3.162a3 3 0 0 0-1.311-1.311C17.72 2 16.88 2 15.2 2H8.8c-1.68 0-2.52 0-3.162.327a3 3 0 0 0-1.311 1.311C4 4.28 4 5.12 4 6.8v10.4c0 1.68 0 2.52.327 3.162a3 3 0 0 0 1.311 1.311C6.28 22 7.12 22 8.8 22h3.7M14 11H8m2 4H8m8-8H8m7 12 3 3m0 0 3-3m-3 3v-6"/>
</symbol>
<symbol id="file-download-03" viewBox="0 0 24 24">
  <path style="stroke-linecap: round; stroke-linejoin: round;" d="M14 2.27V6.4c0 .56 0 .84.109 1.054a1 1 0 0 0 .437.437c.214.11.494.11 1.054.11h4.13M9 15l3 3m0 0 3-3m-3 3v-6m2-10H8.8c-1.68 0-2.52 0-3.162.327a3 3 0 0 0-1.311 1.311C4 4.28 4 5.12 4 6.8v10.4c0 1.68 0 2.52.327 3.162a3 3 0 0 0 1.311 1.311C6.28 22 7.12 22 8.8 22h6.4c1.68 0 2.52 0 3.162-.327a3 3 0 0 0 1.311-1.311C20 19.72 20 18.88 20 17.2V8l-6-6Z"/>
</symbol>
<symbol id="file-heart-01" viewBox="0 0 24 24">
  <path style="stroke-linecap: round; stroke-linejoin: round;" d="M20 10V6.8c0-1.68 0-2.52-.327-3.162a3 3 0 0 0-1.311-1.311C17.72 2 16.88 2 15.2 2H8.8c-1.68 0-2.52 0-3.162.327a3 3 0 0 0-1.311 1.311C4 4.28 4 5.12 4 6.8v10.4c0 1.68 0 2.52.327 3.162a3 3 0 0 0 1.311 1.311C6.28 22 7.12 22 8.8 22H12m4.997-7.17c-.8-.908-2.133-1.153-3.135-.32-1.002.832-1.143 2.223-.356 3.208.787.984 3.491 3.282 3.491 3.282s2.705-2.298 3.492-3.282a2.256 2.256 0 0 0-.356-3.209c-1.02-.823-2.336-.587-3.136.322Z"/>
</symbol>
<symbol id="file-heart-02" viewBox="0 0 24 24">
  <path style="stroke-linecap: round; stroke-linejoin: round;" d="M20 10V6.8c0-1.68 0-2.52-.327-3.162a3 3 0 0 0-1.311-1.311C17.72 2 16.88 2 15.2 2H8.8c-1.68 0-2.52 0-3.162.327a3 3 0 0 0-1.311 1.311C4 4.28 4 5.12 4 6.8v10.4c0 1.68 0 2.52.327 3.162a3 3 0 0 0 1.311 1.311C6.28 22 7.12 22 8.8 22H12m.5-11H8m1 4H8m8-8H8m8.997 7.83c-.8-.908-2.133-1.153-3.135-.32-1.002.832-1.143 2.223-.356 3.208.787.984 3.491 3.282 3.491 3.282s2.705-2.298 3.492-3.282a2.256 2.256 0 0 0-.356-3.209c-1.02-.823-2.336-.587-3.136.322Z"/>
</symbol>
<symbol id="file-heart-03" viewBox="0 0 24 24">
  <path style="stroke-linecap: round; stroke-linejoin: round;" d="M14 2.27V6.4c0 .56 0 .84.109 1.054a1 1 0 0 0 .437.437c.214.11.494.11 1.054.11h4.13M14 2H8.8c-1.68 0-2.52 0-3.162.327a3 3 0 0 0-1.311 1.311C4 4.28 4 5.12 4 6.8v10.4c0 1.68 0 2.52.327 3.162a3 3 0 0 0 1.311 1.311C6.28 22 7.12 22 8.8 22h6.4c1.68 0 2.52 0 3.162-.327a3 3 0 0 0 1.311-1.311C20 19.72 20 18.88 20 17.2V8l-6-6Zm-2.003 9.83c-.8-.908-2.133-1.153-3.135-.32-1.002.832-1.143 2.223-.356 3.208.787.984 3.491 3.282 3.491 3.282s2.705-2.298 3.492-3.282a2.256 2.256 0 0 0-.356-3.209c-1.02-.823-2.336-.587-3.136.322Z"/>
</symbol>
<symbol id="file-minus-01" viewBox="0 0 24 24">
  <path style="stroke-linecap: round; stroke-linejoin: round;" d="M20 11.941V6.8c0-1.68 0-2.52-.327-3.162a3 3 0 0 0-1.311-1.311C17.72 2 16.88 2 15.2 2H8.8c-1.68 0-2.52 0-3.162.327a3 3 0 0 0-1.311 1.311C4 4.28 4 5.12 4 6.8v10.4c0 1.68 0 2.52.327 3.162a3 3 0 0 0 1.311 1.311C6.28 22 7.12 22 8.8 22H14m1-5h6"/>
</symbol>
<symbol id="file-minus-02" viewBox="0 0 24 24">
  <path style="stroke-linecap: round; stroke-linejoin: round;" d="M20 11.941V6.8c0-1.68 0-2.52-.327-3.162a3 3 0 0 0-1.311-1.311C17.72 2 16.88 2 15.2 2H8.8c-1.68 0-2.52 0-3.162.327a3 3 0 0 0-1.311 1.311C4 4.28 4 5.12 4 6.8v10.4c0 1.68 0 2.52.327 3.162a3 3 0 0 0 1.311 1.311C6.28 22 7.12 22 8.8 22H14m0-11H8m2 4H8m8-8H8m7 10h6"/>
</symbol>
<symbol id="file-minus-03" viewBox="0 0 24 24">
  <path style="stroke-linecap: round; stroke-linejoin: round;" d="M14 2.27V6.4c0 .56 0 .84.109 1.054a1 1 0 0 0 .437.437c.214.11.494.11 1.054.11h4.13M9 15h6M14 2H8.8c-1.68 0-2.52 0-3.162.327a3 3 0 0 0-1.311 1.311C4 4.28 4 5.12 4 6.8v10.4c0 1.68 0 2.52.327 3.162a3 3 0 0 0 1.311 1.311C6.28 22 7.12 22 8.8 22h6.4c1.68 0 2.52 0 3.162-.327a3 3 0 0 0 1.311-1.311C20 19.72 20 18.88 20 17.2V8l-6-6Z"/>
</symbol>
<symbol id="file-plus-01" viewBox="0 0 24 24">
  <path style="stroke-linecap: round; stroke-linejoin: round;" d="M20 10.5V6.8c0-1.68 0-2.52-.327-3.162a3 3 0 0 0-1.311-1.311C17.72 2 16.88 2 15.2 2H8.8c-1.68 0-2.52 0-3.162.327a3 3 0 0 0-1.311 1.311C4 4.28 4 5.12 4 6.8v10.4c0 1.68 0 2.52.327 3.162a3 3 0 0 0 1.311 1.311C6.28 22 7.12 22 8.8 22H12m6-1v-6m-3 3h6"/>
</symbol>
<symbol id="file-plus-02" viewBox="0 0 24 24">
  <path style="stroke-linecap: round; stroke-linejoin: round;" d="M20 10.5V6.8c0-1.68 0-2.52-.327-3.162a3 3 0 0 0-1.311-1.311C17.72 2 16.88 2 15.2 2H8.8c-1.68 0-2.52 0-3.162.327a3 3 0 0 0-1.311 1.311C4 4.28 4 5.12 4 6.8v10.4c0 1.68 0 2.52.327 3.162a3 3 0 0 0 1.311 1.311C6.28 22 7.12 22 8.8 22H12m2-11H8m2 4H8m8-8H8m10 14v-6m-3 3h6"/>
</symbol>
<symbol id="file-plus-03" viewBox="0 0 24 24">
  <path style="stroke-linecap: round; stroke-linejoin: round;" d="M14 2.27V6.4c0 .56 0 .84.109 1.054a1 1 0 0 0 .437.437c.214.11.494.11 1.054.11h4.13M12 18v-6m-3 3h6M14 2H8.8c-1.68 0-2.52 0-3.162.327a3 3 0 0 0-1.311 1.311C4 4.28 4 5.12 4 6.8v10.4c0 1.68 0 2.52.327 3.162a3 3 0 0 0 1.311 1.311C6.28 22 7.12 22 8.8 22h6.4c1.68 0 2.52 0 3.162-.327a3 3 0 0 0 1.311-1.311C20 19.72 20 18.88 20 17.2V8l-6-6Z"/>
</symbol>
<symbol id="file-question-01" viewBox="0 0 24 24">
  <path style="stroke-linecap: round; stroke-linejoin: round;" d="M20 9.5V6.8c0-1.68 0-2.52-.327-3.162a3 3 0 0 0-1.311-1.311C17.72 2 16.88 2 15.2 2H8.8c-1.68 0-2.52 0-3.162.327a3 3 0 0 0-1.311 1.311C4 4.28 4 5.12 4 6.8v10.4c0 1.68 0 2.52.327 3.162a3 3 0 0 0 1.311 1.311C6.28 22 7.12 22 8.8 22H14m2.5-6.998a2.249 2.249 0 0 1 4.37.75c0 1.499-2.25 2.248-2.25 2.248m.03 3h.01"/>
</symbol>
<symbol id="file-question-02" viewBox="0 0 24 24">
  <path style="stroke-linecap: round; stroke-linejoin: round;" d="M20 9.5V6.8c0-1.68 0-2.52-.327-3.162a3 3 0 0 0-1.311-1.311C17.72 2 16.88 2 15.2 2H8.8c-1.68 0-2.52 0-3.162.327a3 3 0 0 0-1.311 1.311C4 4.28 4 5.12 4 6.8v10.4c0 1.68 0 2.52.327 3.162a3 3 0 0 0 1.311 1.311C6.28 22 7.12 22 8.8 22H14m0-11H8m2 4H8m8-8H8m8.5 8.002a2.249 2.249 0 0 1 4.37.75c0 1.499-2.25 2.248-2.25 2.248m.03 3h.01"/>
</symbol>
<symbol id="file-question-03" viewBox="0 0 24 24">
  <path style="stroke-linecap: round; stroke-linejoin: round;" d="M14 2.27V6.4c0 .56 0 .84.109 1.054a1 1 0 0 0 .437.437c.214.11.494.11 1.054.11h4.13m-9.88 4.001a2.248 2.248 0 0 1 4.37.75c0 1.499-2.25 2.248-2.25 2.248m.03 3h.01M14 2H8.8c-1.68 0-2.52 0-3.162.327a3 3 0 0 0-1.311 1.311C4 4.28 4 5.12 4 6.8v10.4c0 1.68 0 2.52.327 3.162a3 3 0 0 0 1.311 1.311C6.28 22 7.12 22 8.8 22h6.4c1.68 0 2.52 0 3.162-.327a3 3 0 0 0 1.311-1.311C20 19.72 20 18.88 20 17.2V8l-6-6Z"/>
</symbol>
<symbol id="file-search-01" viewBox="0 0 24 24">
  <path style="stroke-linecap: round; stroke-linejoin: round;" d="M20 10.5V6.8c0-1.68 0-2.52-.327-3.162a3 3 0 0 0-1.311-1.311C17.72 2 16.88 2 15.2 2H8.8c-1.68 0-2.52 0-3.162.327a3 3 0 0 0-1.311 1.311C4 4.28 4 5.12 4 6.8v10.4c0 1.68 0 2.52.327 3.162a3 3 0 0 0 1.311 1.311C6.28 22 7.12 22 8.8 22h2.7M22 22l-1.5-1.5m1-2.5a3.5 3.5 0 1 1-7 0 3.5 3.5 0 0 1 7 0Z"/>
</symbol>
<symbol id="file-search-02" viewBox="0 0 24 24">
  <path style="stroke-linecap: round; stroke-linejoin: round;" d="M14 11H8m2 4H8m8-8H8m12 3.5V6.8c0-1.68 0-2.52-.327-3.162a3 3 0 0 0-1.311-1.311C17.72 2 16.88 2 15.2 2H8.8c-1.68 0-2.52 0-3.162.327a3 3 0 0 0-1.311 1.311C4 4.28 4 5.12 4 6.8v10.4c0 1.68 0 2.52.327 3.162a3 3 0 0 0 1.311 1.311C6.28 22 7.12 22 8.8 22h2.7M22 22l-1.5-1.5m1-2.5a3.5 3.5 0 1 1-7 0 3.5 3.5 0 0 1 7 0Z"/>
</symbol>
<symbol id="file-search-03" viewBox="0 0 24 24">
  <path style="stroke-linecap: round; stroke-linejoin: round;" d="M14 2.27V6.4c0 .56 0 .84.109 1.054a1 1 0 0 0 .437.437c.214.11.494.11 1.054.11h4.13M16 18.5 14.5 17M14 2H8.8c-1.68 0-2.52 0-3.162.327a3 3 0 0 0-1.311 1.311C4 4.28 4 5.12 4 6.8v10.4c0 1.68 0 2.52.327 3.162a3 3 0 0 0 1.311 1.311C6.28 22 7.12 22 8.8 22h6.4c1.68 0 2.52 0 3.162-.327a3 3 0 0 0 1.311-1.311C20 19.72 20 18.88 20 17.2V8l-6-6Zm1.5 12.5a3.5 3.5 0 1 1-7 0 3.5 3.5 0 0 1 7 0Z"/>
</symbol>
<symbol id="file-x-01" viewBox="0 0 24 24">
  <path style="stroke-linecap: round; stroke-linejoin: round;" d="M20 12V6.8c0-1.68 0-2.52-.327-3.162a3 3 0 0 0-1.311-1.311C17.72 2 16.88 2 15.2 2H8.8c-1.68 0-2.52 0-3.162.327a3 3 0 0 0-1.311 1.311C4 4.28 4 5.12 4 6.8v10.4c0 1.68 0 2.52.327 3.162a3 3 0 0 0 1.311 1.311C6.28 22 7.12 22 8.8 22H12m4-6 5 5m0-5-5 5"/>
</symbol>
<symbol id="file-x-02" viewBox="0 0 24 24">
  <path style="stroke-linecap: round; stroke-linejoin: round;" d="M14 11H8m2 4H8m8-8H8m12 5V6.8c0-1.68 0-2.52-.327-3.162a3 3 0 0 0-1.311-1.311C17.72 2 16.88 2 15.2 2H8.8c-1.68 0-2.52 0-3.162.327a3 3 0 0 0-1.311 1.311C4 4.28 4 5.12 4 6.8v10.4c0 1.68 0 2.52.327 3.162a3 3 0 0 0 1.311 1.311C6.28 22 7.12 22 8.8 22H12m4-6 5 5m0-5-5 5"/>
</symbol>
<symbol id="file-x-03" viewBox="0 0 24 24">
  <path style="stroke-linecap: round; stroke-linejoin: round;" d="M14 2.27V6.4c0 .56 0 .84.109 1.054a1 1 0 0 0 .437.437c.214.11.494.11 1.054.11h4.13M9.5 12l5 5m0-5-5 5M14 2H8.8c-1.68 0-2.52 0-3.162.327a3 3 0 0 0-1.311 1.311C4 4.28 4 5.12 4 6.8v10.4c0 1.68 0 2.52.327 3.162a3 3 0 0 0 1.311 1.311C6.28 22 7.12 22 8.8 22h6.4c1.68 0 2.52 0 3.162-.327a3 3 0 0 0 1.311-1.311C20 19.72 20 18.88 20 17.2V8l-6-6Z"/>
</symbol>
<symbol id="folder-check" viewBox="0 0 24 24">
  <path style="stroke-linecap: round; stroke-linejoin: round;" d="m13 7-1.116-2.231c-.32-.642-.481-.963-.72-1.198a2 2 0 0 0-.748-.462C10.1 3 9.74 3 9.022 3H5.2c-1.12 0-1.68 0-2.108.218a2 2 0 0 0-.874.874C2 4.52 2 5.08 2 6.2V7m0 0h15.2c1.68 0 2.52 0 3.162.327a3 3 0 0 1 1.311 1.311C22 9.28 22 10.12 22 11.8v4.4c0 1.68 0 2.52-.327 3.162a3 3 0 0 1-1.311 1.311C19.72 21 18.88 21 17.2 21H6.8c-1.68 0-2.52 0-3.162-.327a3 3 0 0 1-1.311-1.311C2 18.72 2 17.88 2 16.2V7Zm7 7 2 2 4.5-4.5"/>
</symbol>
<symbol id="folder-closed" viewBox="0 0 24 24">
  <path style="stroke-linecap: round; stroke-linejoin: round;" d="m13 7-1.116-2.231c-.32-.642-.481-.963-.72-1.198a2 2 0 0 0-.748-.462C10.1 3 9.74 3 9.022 3H5.2c-1.12 0-1.68 0-2.108.218a2 2 0 0 0-.874.874C2 4.52 2 5.08 2 6.2V7m0 0h15.2c1.68 0 2.52 0 3.162.327a3 3 0 0 1 1.311 1.311C22 9.28 22 10.12 22 11.8v4.4c0 1.68 0 2.52-.327 3.162a3 3 0 0 1-1.311 1.311C19.72 21 18.88 21 17.2 21H6.8c-1.68 0-2.52 0-3.162-.327a3 3 0 0 1-1.311-1.311C2 18.72 2 17.88 2 16.2V7Zm7.5 4.5 5 5M16 14a4 4 0 1 1-8 0 4 4 0 0 1 8 0Z"/>
</symbol>
<symbol id="folder-download" viewBox="0 0 24 24">
  <path style="stroke-linecap: round; stroke-linejoin: round;" d="m13 7-1.116-2.231c-.32-.642-.481-.963-.72-1.198a2 2 0 0 0-.748-.462C10.1 3 9.74 3 9.022 3H5.2c-1.12 0-1.68 0-2.108.218a2 2 0 0 0-.874.874C2 4.52 2 5.08 2 6.2V7m0 0h15.2c1.68 0 2.52 0 3.162.327a3 3 0 0 1 1.311 1.311C22 9.28 22 10.12 22 11.8v4.4c0 1.68 0 2.52-.327 3.162a3 3 0 0 1-1.311 1.311C19.72 21 18.88 21 17.2 21H6.8c-1.68 0-2.52 0-3.162-.327a3 3 0 0 1-1.311-1.311C2 18.72 2 17.88 2 16.2V7Zm7 7 3 3m0 0 3-3m-3 3v-6"/>
</symbol>
<symbol id="folder-lock" viewBox="0 0 24 24">
  <path style="stroke-linecap: round; stroke-linejoin: round;" d="m13 7-1.116-2.231c-.32-.642-.481-.963-.72-1.198a2 2 0 0 0-.748-.462C10.1 3 9.74 3 9.022 3H5.2c-1.12 0-1.68 0-2.108.218a2 2 0 0 0-.874.874C2 4.52 2 5.08 2 6.2V7m0 0h15.2c1.68 0 2.52 0 3.162.327a3 3 0 0 1 1.311 1.311C22 9.28 22 10.12 22 11.8v4.4c0 1.68 0 2.52-.327 3.162a3 3 0 0 1-1.311 1.311C19.72 21 18.88 21 17.2 21H6.8c-1.68 0-2.52 0-3.162-.327a3 3 0 0 1-1.311-1.311C2 18.72 2 17.88 2 16.2V7Zm8.1 10.5h3.8c.56 0 .84 0 1.054-.109a1 1 0 0 0 .437-.437c.109-.214.109-.494.109-1.054v-.8c0-.56 0-.84-.109-1.054a1 1 0 0 0-.437-.437c-.214-.109-.494-.109-1.054-.109h-3.8c-.56 0-.84 0-1.054.109a1 1 0 0 0-.437.437C8.5 14.26 8.5 14.54 8.5 15.1v.8c0 .56 0 .84.109 1.054a1 1 0 0 0 .437.437c.214.109.494.109 1.054.109Zm3.65-4v-1.75a1.75 1.75 0 1 0-3.5 0v1.75h3.5Z"/>
</symbol>
<symbol id="folder-minus" viewBox="0 0 24 24">
  <path style="stroke-linecap: round; stroke-linejoin: round;" d="m13 7-1.116-2.231c-.32-.642-.481-.963-.72-1.198a2 2 0 0 0-.748-.462C10.1 3 9.74 3 9.022 3H5.2c-1.12 0-1.68 0-2.108.218a2 2 0 0 0-.874.874C2 4.52 2 5.08 2 6.2V7m0 0h15.2c1.68 0 2.52 0 3.162.327a3 3 0 0 1 1.311 1.311C22 9.28 22 10.12 22 11.8v4.4c0 1.68 0 2.52-.327 3.162a3 3 0 0 1-1.311 1.311C19.72 21 18.88 21 17.2 21H6.8c-1.68 0-2.52 0-3.162-.327a3 3 0 0 1-1.311-1.311C2 18.72 2 17.88 2 16.2V7Zm7 7h6"/>
</symbol>
<symbol id="folder-plus" viewBox="0 0 24 24">
  <path style="stroke-linecap: round; stroke-linejoin: round;" d="m13 7-1.116-2.231c-.32-.642-.481-.963-.72-1.198a2 2 0 0 0-.748-.462C10.1 3 9.74 3 9.022 3H5.2c-1.12 0-1.68 0-2.108.218a2 2 0 0 0-.874.874C2 4.52 2 5.08 2 6.2V7m0 0h15.2c1.68 0 2.52 0 3.162.327a3 3 0 0 1 1.311 1.311C22 9.28 22 10.12 22 11.8v4.4c0 1.68 0 2.52-.327 3.162a3 3 0 0 1-1.311 1.311C19.72 21 18.88 21 17.2 21H6.8c-1.68 0-2.52 0-3.162-.327a3 3 0 0 1-1.311-1.311C2 18.72 2 17.88 2 16.2V7Zm10 10v-6m-3 3h6"/>
</symbol>
<symbol id="folder-question" viewBox="0 0 24 24">
  <path style="stroke-linecap: round; stroke-linejoin: round;" d="m13 7-1.116-2.231c-.32-.642-.481-.963-.72-1.198a2 2 0 0 0-.748-.462C10.1 3 9.74 3 9.022 3H5.2c-1.12 0-1.68 0-2.108.218a2 2 0 0 0-.874.874C2 4.52 2 5.08 2 6.2V7m0 0h15.2c1.68 0 2.52 0 3.162.327a3 3 0 0 1 1.311 1.311C22 9.28 22 10.12 22 11.8v4.4c0 1.68 0 2.52-.327 3.162a3 3 0 0 1-1.311 1.311C19.72 21 18.88 21 17.2 21H6.8c-1.68 0-2.52 0-3.162-.327a3 3 0 0 1-1.311-1.311C2 18.72 2 17.88 2 16.2V7Zm7.85 4.752a2.249 2.249 0 0 1 4.37.75c0 1.499-2.249 2.248-2.249 2.248m.029 3h.01"/>
</symbol>
<symbol id="folder-search" viewBox="0 0 24 24">
  <path style="stroke-linecap: round; stroke-linejoin: round;" d="m13 7-1.116-2.231c-.32-.642-.481-.963-.72-1.198a2 2 0 0 0-.748-.462C10.1 3 9.74 3 9.022 3H5.2c-1.12 0-1.68 0-2.108.218a2 2 0 0 0-.874.874C2 4.52 2 5.08 2 6.2V7m0 0h15.2c1.68 0 2.52 0 3.162.327a3 3 0 0 1 1.311 1.311C22 9.28 22 10.12 22 11.8v4.4c0 1.68 0 2.52-.327 3.162a3 3 0 0 1-1.311 1.311C19.72 21 18.88 21 17.2 21H6.8c-1.68 0-2.52 0-3.162-.327a3 3 0 0 1-1.311-1.311C2 18.72 2 17.88 2 16.2V7Zm13.5 10.5L14 16m1-2.5a3.5 3.5 0 1 1-7 0 3.5 3.5 0 0 1 7 0Z"/>
</symbol>
<symbol id="folder-x" viewBox="0 0 24 24">
  <path style="stroke-linecap: round; stroke-linejoin: round;" d="m13 7-1.116-2.231c-.32-.642-.481-.963-.72-1.198a2 2 0 0 0-.748-.462C10.1 3 9.74 3 9.022 3H5.2c-1.12 0-1.68 0-2.108.218a2 2 0 0 0-.874.874C2 4.52 2 5.08 2 6.2V7m0 0h15.2c1.68 0 2.52 0 3.162.327a3 3 0 0 1 1.311 1.311C22 9.28 22 10.12 22 11.8v4.4c0 1.68 0 2.52-.327 3.162a3 3 0 0 1-1.311 1.311C19.72 21 18.88 21 17.2 21H6.8c-1.68 0-2.52 0-3.162-.327a3 3 0 0 1-1.311-1.311C2 18.72 2 17.88 2 16.2V7Zm7.5 4.5 5 5m0-5-5 5"/>
</symbol>
<symbol id="folder" viewBox="0 0 24 24">
  <path style="stroke-linecap: round; stroke-linejoin: round;" d="m13 7-1.116-2.231c-.32-.642-.481-.963-.72-1.198a2 2 0 0 0-.748-.462C10.1 3 9.74 3 9.022 3H5.2c-1.12 0-1.68 0-2.108.218a2 2 0 0 0-.874.874C2 4.52 2 5.08 2 6.2V7m0 0h15.2c1.68 0 2.52 0 3.162.327a3 3 0 0 1 1.311 1.311C22 9.28 22 10.12 22 11.8v4.4c0 1.68 0 2.52-.327 3.162a3 3 0 0 1-1.311 1.311C19.72 21 18.88 21 17.2 21H6.8c-1.68 0-2.52 0-3.162-.327a3 3 0 0 1-1.311-1.311C2 18.72 2 17.88 2 16.2V7Z"/>
</symbol>
<symbol id="paperclip" viewBox="0 0 24 24">
  <path style="stroke-linecap: round; stroke-linejoin: round;" d="m21.152 10.9-9.015 9.015a5.25 5.25 0 0 1-7.425-7.424l9.016-9.016a3.5 3.5 0 1 1 4.95 4.95l-8.662 8.662a1.75 1.75 0 0 1-2.475-2.475l7.601-7.602"/>
</symbol>
<symbol id="sticker-circle" viewBox="0 0 24 24">
  <path style="stroke-linecap: round; stroke-linejoin: round;" d="M22 12.117C22 6.53 17.472 2 11.884 2 7.348 2 3.51 4.984 2.226 9.095c-.082.264-.123.395-.12.56.004.134.045.3.104.42.073.147.186.26.41.485l10.822 10.82c.225.226.338.339.486.412.12.059.285.1.419.103.165.004.296-.037.56-.12C19.017 20.49 22 16.652 22 12.117Z"/>
  <path style="stroke-linecap: round; stroke-linejoin: round;" d="M3.447 9.734c.24-.017.483-.026.728-.026 5.588 0 10.117 4.53 10.117 10.117 0 .245-.009.488-.026.729-.03.42-.044.63-.167.76a.532.532 0 0 1-.413.154c-.178-.018-.34-.18-.662-.502l-9.99-9.99c-.322-.322-.484-.484-.502-.661a.531.531 0 0 1 .155-.414c.13-.122.34-.137.76-.167Z"/>
</symbol>
<symbol id="sticker-square" viewBox="0 0 24 24">
  <path style="stroke-linecap: round; stroke-linejoin: round;" d="M13 3.5v2.7c0 1.68 0 2.52.327 3.162a3 3 0 0 0 1.311 1.311C15.28 11 16.12 11 17.8 11h2.7m.5 1.988V16.2c0 1.68 0 2.52-.327 3.162a3 3 0 0 1-1.311 1.311C18.72 21 17.88 21 16.2 21H7.8c-1.68 0-2.52 0-3.162-.327a3 3 0 0 1-1.311-1.311C3 18.72 3 17.88 3 16.2V7.8c0-1.68 0-2.52.327-3.162a3 3 0 0 1 1.311-1.311C5.28 3 6.12 3 7.8 3h3.212c.733 0 1.1 0 1.446.083.306.073.598.195.867.36.303.185.562.444 1.08.963l5.19 5.188c.518.519.777.778.963 1.081.164.269.286.561.36.867.082.346.082.713.082 1.446Z"/>
</symbol>
</svg>
