<?xml version="1.0" encoding="utf-8"?>
<svg xmlns="http://www.w3.org/2000/svg">
<symbol id="assign_user" viewBox="0 0 24 24">
  <path style="stroke-linecap: round; stroke-linejoin: round;" d="M12 15.5H7.5c-1.396 0-2.093 0-2.661.172a4 4 0 0 0-2.667 2.667C2 18.907 2 19.604 2 21m17 0v-6m-3 3h6M14.5 7.5a4.5 4.5 0 1 1-9 0 4.5 4.5 0 0 1 9 0Z"/>
</symbol>
<symbol id="face-content" viewBox="0 0 24 24">
    <path style="stroke-linecap: round; stroke-linejoin: round;" d="M12 16H5l-3 2v3m17 0v-6m-3 3h6M15 8a5 5 0 1 1-9 0 5 5 0 0 1 9 0"/>
</symbol>
<symbol id="face-frown" viewBox="0 0 24 24">
  <path style="stroke-linecap: round; stroke-linejoin: round;" d="M16 16s-1.5-2-4-2-4 2-4 2m7-7h.01M9 9h.01M22 12c0 5.523-4.477 10-10 10S2 17.523 2 12 6.477 2 12 2s10 4.477 10 10Zm-6.5-3a.5.5 0 1 1-1 0 .5.5 0 0 1 1 0Zm-6 0a.5.5 0 1 1-1 0 .5.5 0 0 1 1 0Z"/>
</symbol>
<symbol id="face-happy" viewBox="0 0 24 24">
  <path style="stroke-linecap: round; stroke-linejoin: round;" d="M15 9h.01M9 9h.01M22 12c0 5.523-4.477 10-10 10S2 17.523 2 12 6.477 2 12 2s10 4.477 10 10Zm-6.5-3a.5.5 0 1 1-1 0 .5.5 0 0 1 1 0Zm-6 0a.5.5 0 1 1-1 0 .5.5 0 0 1 1 0Zm2.5 8.5c2.5 0 4.5-1.833 4.5-3.5h-9c0 1.667 2 3.5 4.5 3.5Z"/>
</symbol>
<symbol id="face-neutral" viewBox="0 0 24 24">
  <path style="stroke-linecap: round; stroke-linejoin: round;" d="M8 15h8m-1-6h.01M9 9h.01M22 12c0 5.523-4.477 10-10 10S2 17.523 2 12 6.477 2 12 2s10 4.477 10 10Zm-6.5-3a.5.5 0 1 1-1 0 .5.5 0 0 1 1 0Zm-6 0a.5.5 0 1 1-1 0 .5.5 0 0 1 1 0Z"/>
</symbol>
<symbol id="face-sad" viewBox="0 0 24 24">
  <path style="stroke-linecap: round; stroke-linejoin: round;" d="M16 16s-1.5-2-4-2-4 2-4 2m9-6.76c-.395.485-.935.76-1.5.76s-1.09-.275-1.5-.76m-4 0c-.395.485-.935.76-1.5.76S7.41 9.725 7 9.24M22 12c0 5.523-4.477 10-10 10S2 17.523 2 12 6.477 2 12 2s10 4.477 10 10Z"/>
</symbol>
<symbol id="face-smile" viewBox="0 0 24 24">
  <path style="stroke-linecap: round; stroke-linejoin: round;" d="M8 14s1.5 2 4 2 4-2 4-2m-1-5h.01M9 9h.01M22 12c0 5.523-4.477 10-10 10S2 17.523 2 12 6.477 2 12 2s10 4.477 10 10Zm-6.5-3a.5.5 0 1 1-1 0 .5.5 0 0 1 1 0Zm-6 0a.5.5 0 1 1-1 0 .5.5 0 0 1 1 0Z"/>
</symbol>
<symbol id="face-wink" viewBox="0 0 24 24">
  <path style="stroke-linecap: round; stroke-linejoin: round;" d="M8 14s1.5 2 4 2 4-2 4-2m-1-5h.01M8 9h2m12 3c0 5.523-4.477 10-10 10S2 17.523 2 12 6.477 2 12 2s10 4.477 10 10Zm-6.5-3a.5.5 0 1 1-1 0 .5.5 0 0 1 1 0Z"/>
</symbol>
<symbol id="user-02" viewBox="0 0 24 24">
  <path style="stroke-linecap: round; stroke-linejoin: round;" d="M12 15c-3.17 0-5.99 1.53-7.784 3.906-.386.511-.58.767-.573 1.112.005.267.172.604.382.769.272.213.649.213 1.402.213h13.146c.753 0 1.13 0 1.402-.213.21-.165.377-.502.382-.769.006-.345-.187-.6-.573-1.112C17.989 16.531 15.17 15 12 15Zm0-3a4.5 4.5 0 1 0 0-9 4.5 4.5 0 0 0 0 9Z"/>
</symbol>
<symbol id="user-03" viewBox="0 0 24 24">
  <path style="stroke-linecap: round; stroke-linejoin: round;" d="M3 20c2.336-2.477 5.507-4 9-4 3.493 0 6.664 1.523 9 4M16.5 7.5a4.5 4.5 0 1 1-9 0 4.5 4.5 0 0 1 9 0Z"/>
</symbol>
<symbol id="user-check-01" viewBox="0 0 24 24">
  <path style="stroke-linecap: round; stroke-linejoin: round;" d="M12 15.5H7.5c-1.396 0-2.093 0-2.661.172a4 4 0 0 0-2.667 2.667C2 18.907 2 19.604 2 21m14-3 2 2 4-4m-7.5-8.5a4.5 4.5 0 1 1-9 0 4.5 4.5 0 0 1 9 0Z"/>
</symbol>
<symbol id="user-check-02" viewBox="0 0 24 24">
  <path style="stroke-linecap: round; stroke-linejoin: round;" d="M16 21v-1.2c0-1.68 0-2.52-.327-3.162a3 3 0 0 0-1.311-1.311C13.72 15 12.88 15 11.2 15H6.8c-1.68 0-2.52 0-3.162.327a3 3 0 0 0-1.311 1.311C2 17.28 2 18.12 2 19.8V21M16 6l2 2 4-4m-9.5 3.5a3.5 3.5 0 1 1-7 0 3.5 3.5 0 0 1 7 0Z"/>
</symbol>
<symbol id="user-circle" viewBox="0 0 24 24">
  <path style="stroke-linecap: round; stroke-linejoin: round;" d="M5.316 19.438A4.001 4.001 0 0 1 9 17h6a4.001 4.001 0 0 1 3.684 2.438M16 9.5a4 4 0 1 1-8 0 4 4 0 0 1 8 0Zm6 2.5c0 5.523-4.477 10-10 10S2 17.523 2 12 6.477 2 12 2s10 4.477 10 10Z"/>
</symbol>
<symbol id="user-down-01" viewBox="0 0 24 24">
  <path style="stroke-linecap: round; stroke-linejoin: round;" d="M12 15.5H7.5c-1.396 0-2.093 0-2.661.172a4 4 0 0 0-2.667 2.667C2 18.907 2 19.604 2 21m14-3 3 3m0 0 3-3m-3 3v-6m-4.5-7.5a4.5 4.5 0 1 1-9 0 4.5 4.5 0 0 1 9 0Z"/>
</symbol>
<symbol id="user-down-02" viewBox="0 0 24 24">
  <path style="stroke-linecap: round; stroke-linejoin: round;" d="m16 7 3 3m0 0 3-3m-3 3V4m-3 17v-1.2c0-1.68 0-2.52-.327-3.162a3 3 0 0 0-1.311-1.311C13.72 15 12.88 15 11.2 15H6.8c-1.68 0-2.52 0-3.162.327a3 3 0 0 0-1.311 1.311C2 17.28 2 18.12 2 19.8V21M12.5 7.5a3.5 3.5 0 1 1-7 0 3.5 3.5 0 0 1 7 0Z"/>
</symbol>
<symbol id="user-edit" viewBox="0 0 24 24">
  <path style="stroke-linecap: round; stroke-linejoin: round;" d="M9 15.5H7.5c-1.396 0-2.093 0-2.661.172a4 4 0 0 0-2.667 2.667C2 18.907 2 19.604 2 21M14.5 7.5a4.5 4.5 0 1 1-9 0 4.5 4.5 0 0 1 9 0ZM11 21l3.101-.886c.149-.043.223-.064.292-.096a.998.998 0 0 0 .175-.102c.061-.045.116-.1.225-.21l6.457-6.456a1.768 1.768 0 1 0-2.5-2.5l-6.457 6.457a2.12 2.12 0 0 0-.209.225.998.998 0 0 0-.102.175 2.07 2.07 0 0 0-.096.292L11 21Z"/>
</symbol>
<symbol id="user-left-01" viewBox="0 0 24 24">
  <path style="stroke-linecap: round; stroke-linejoin: round;" d="m19 21-3-3m0 0 3-3m-3 3h6m-10-2.5H7.5c-1.396 0-2.093 0-2.661.172a4 4 0 0 0-2.667 2.667C2 18.907 2 19.604 2 21M14.5 7.5a4.5 4.5 0 1 1-9 0 4.5 4.5 0 0 1 9 0Z"/>
</symbol>
<symbol id="user-left-02" viewBox="0 0 24 24">
  <path style="stroke-linecap: round; stroke-linejoin: round;" d="m19 9-3-3m0 0 3-3m-3 3h6m-6 15v-1.2c0-1.68 0-2.52-.327-3.162a3 3 0 0 0-1.311-1.311C13.72 15 12.88 15 11.2 15H6.8c-1.68 0-2.52 0-3.162.327a3 3 0 0 0-1.311 1.311C2 17.28 2 18.12 2 19.8V21M12.5 7.5a3.5 3.5 0 1 1-7 0 3.5 3.5 0 0 1 7 0Z"/>
</symbol>
<symbol id="user-minus-01" viewBox="0 0 24 24">
  <path style="stroke-linecap: round; stroke-linejoin: round;" d="M16 18h6m-10-2.5H7.5c-1.396 0-2.093 0-2.661.172a4 4 0 0 0-2.667 2.667C2 18.907 2 19.604 2 21M14.5 7.5a4.5 4.5 0 1 1-9 0 4.5 4.5 0 0 1 9 0Z"/>
</symbol>
<symbol id="user-minus-02" viewBox="0 0 24 24">
  <path style="stroke-linecap: round; stroke-linejoin: round;" d="M16 7h6m-6 14v-1.2c0-1.68 0-2.52-.327-3.162a3 3 0 0 0-1.311-1.311C13.72 15 12.88 15 11.2 15H6.8c-1.68 0-2.52 0-3.162.327a3 3 0 0 0-1.311 1.311C2 17.28 2 18.12 2 19.8V21M12.5 7.5a3.5 3.5 0 1 1-7 0 3.5 3.5 0 0 1 7 0Z"/>
</symbol>
<symbol id="user-plus-02" viewBox="0 0 24 24">
  <path style="stroke-linecap: round; stroke-linejoin: round;" d="M19 10V4m-3 3h6m-6 14v-1.2c0-1.68 0-2.52-.327-3.162a3 3 0 0 0-1.311-1.311C13.72 15 12.88 15 11.2 15H6.8c-1.68 0-2.52 0-3.162.327a3 3 0 0 0-1.311 1.311C2 17.28 2 18.12 2 19.8V21M12.5 7.5a3.5 3.5 0 1 1-7 0 3.5 3.5 0 0 1 7 0Z"/>
</symbol>
<symbol id="user-right-01" viewBox="0 0 24 24">
  <path style="stroke-linecap: round; stroke-linejoin: round;" d="m19 21 3-3m0 0-3-3m3 3h-6m-4-2.5H7.5c-1.396 0-2.093 0-2.661.172a4 4 0 0 0-2.667 2.667C2 18.907 2 19.604 2 21M14.5 7.5a4.5 4.5 0 1 1-9 0 4.5 4.5 0 0 1 9 0Z"/>
</symbol>
<symbol id="user-right-02" viewBox="0 0 24 24">
  <path style="stroke-linecap: round; stroke-linejoin: round;" d="m19 9 3-3m0 0-3-3m3 3h-6m0 15v-1.2c0-1.68 0-2.52-.327-3.162a3 3 0 0 0-1.311-1.311C13.72 15 12.88 15 11.2 15H6.8c-1.68 0-2.52 0-3.162.327a3 3 0 0 0-1.311 1.311C2 17.28 2 18.12 2 19.8V21M12.5 7.5a3.5 3.5 0 1 1-7 0 3.5 3.5 0 0 1 7 0Z"/>
</symbol>
<symbol id="user-square" viewBox="0 0 24 24">
  <path style="stroke-linecap: round; stroke-linejoin: round;" d="M4 21.817C4.603 22 5.416 22 6.8 22h10.4c1.384 0 2.197 0 2.8-.183m-16 0a2.18 2.18 0 0 1-.362-.144 3 3 0 0 1-1.311-1.311C2 19.72 2 18.88 2 17.2V6.8c0-1.68 0-2.52.327-3.162a3 3 0 0 1 1.311-1.311C4.28 2 5.12 2 6.8 2h10.4c1.68 0 2.52 0 3.162.327a3 3 0 0 1 1.311 1.311C22 4.28 22 5.12 22 6.8v10.4c0 1.68 0 2.52-.327 3.162a3 3 0 0 1-1.311 1.311 2.18 2.18 0 0 1-.362.144m-16 0c0-.809.005-1.237.077-1.597a4 4 0 0 1 3.143-3.143C7.606 17 8.07 17 9 17h6c.93 0 1.394 0 1.78.077a4 4 0 0 1 3.143 3.143c.072.36.077.788.077 1.597M16 9.5a4 4 0 1 1-8 0 4 4 0 0 1 8 0Z"/>
</symbol>
<symbol id="user-up-01" viewBox="0 0 24 24">
  <path style="stroke-linecap: round; stroke-linejoin: round;" d="m16 18 3-3m0 0 3 3m-3-3v6m-7-5.5H7.5c-1.396 0-2.093 0-2.661.172a4 4 0 0 0-2.667 2.667C2 18.907 2 19.604 2 21M14.5 7.5a4.5 4.5 0 1 1-9 0 4.5 4.5 0 0 1 9 0Z"/>
</symbol>
<symbol id="user-up-02" viewBox="0 0 24 24">
  <path style="stroke-linecap: round; stroke-linejoin: round;" d="m16 6 3-3m0 0 3 3m-3-3v6m-3 12v-1.2c0-1.68 0-2.52-.327-3.162a3 3 0 0 0-1.311-1.311C13.72 15 12.88 15 11.2 15H6.8c-1.68 0-2.52 0-3.162.327a3 3 0 0 0-1.311 1.311C2 17.28 2 18.12 2 19.8V21M12.5 7.5a3.5 3.5 0 1 1-7 0 3.5 3.5 0 0 1 7 0Z"/>
</symbol>
<symbol id="user-x-01" viewBox="0 0 24 24">
  <path style="stroke-linecap: round; stroke-linejoin: round;" d="m16.5 16 5 5m0-5-5 5M12 15.5H7.5c-1.396 0-2.093 0-2.661.172a4 4 0 0 0-2.667 2.667C2 18.907 2 19.604 2 21M14.5 7.5a4.5 4.5 0 1 1-9 0 4.5 4.5 0 0 1 9 0Z"/>
</symbol>
<symbol id="user-x-02" viewBox="0 0 24 24">
  <path style="stroke-linecap: round; stroke-linejoin: round;" d="m16.5 4 5 5m0-5-5 5M16 21v-1.2c0-1.68 0-2.52-.327-3.162a3 3 0 0 0-1.311-1.311C13.72 15 12.88 15 11.2 15H6.8c-1.68 0-2.52 0-3.162.327a3 3 0 0 0-1.311 1.311C2 17.28 2 18.12 2 19.8V21M12.5 7.5a3.5 3.5 0 1 1-7 0 3.5 3.5 0 0 1 7 0Z"/>
</symbol>
<symbol id="users-01" viewBox="0 0 24 24">
  <path style="stroke-linecap: round; stroke-linejoin: round;" d="M22 21v-2a4.002 4.002 0 0 0-3-3.874M15.5 3.291a4.001 4.001 0 0 1 0 7.418M17 21c0-1.864 0-2.796-.305-3.53a4 4 0 0 0-2.164-2.165C13.796 15 12.864 15 11 15H8c-1.864 0-2.796 0-3.53.305a4 4 0 0 0-2.166 2.164C2 18.204 2 19.136 2 21M13.5 7a4 4 0 1 1-8 0 4 4 0 0 1 8 0Z"/>
</symbol>
<symbol id="users-02" viewBox="0 0 24 24">
  <path style="stroke-linecap: round; stroke-linejoin: round;" d="M16 3.468a4.5 4.5 0 0 1 0 8.064m2 5.234c1.512.684 2.872 1.799 4 3.234M2 20c1.946-2.477 4.59-4 7.5-4s5.553 1.523 7.5 4M14 7.5a4.5 4.5 0 1 1-9 0 4.5 4.5 0 0 1 9 0Z"/>
</symbol>
<symbol id="users-03" viewBox="0 0 24 24">
  <path style="stroke-linecap: round; stroke-linejoin: round;" d="M18 15.837c1.456.731 2.704 1.905 3.615 3.373.18.29.27.436.302.637.063.409-.216.912-.597 1.073-.188.08-.398.08-.82.08M16 11.532a4.5 4.5 0 0 0 0-8.064M14 7.5a4.5 4.5 0 1 1-9 0 4.5 4.5 0 0 1 9 0ZM2.56 18.938C4.153 16.545 6.67 15 9.5 15s5.347 1.545 6.94 3.938c.35.525.525.787.505 1.122-.016.26-.187.58-.395.738-.268.202-.636.202-1.372.202H3.822c-.736 0-1.104 0-1.372-.202a1.109 1.109 0 0 1-.395-.738c-.02-.335.155-.597.504-1.122Z"/>
</symbol>
<symbol id="users-check" viewBox="0 0 24 24">
  <path style="stroke-linecap: round; stroke-linejoin: round;" d="m16 18 2 2 4-4m-10-1H8c-1.864 0-2.796 0-3.53.305a4 4 0 0 0-2.166 2.164C2 18.204 2 19.136 2 21M15.5 3.29a4.001 4.001 0 0 1 0 7.42M13.5 7a4 4 0 1 1-8 0 4 4 0 0 1 8 0Z"/>
</symbol>
<symbol id="users-down" viewBox="0 0 24 24">
  <path style="stroke-linecap: round; stroke-linejoin: round;" d="m16 18 3 3m0 0 3-3m-3 3v-6M15.5 3.29a4.001 4.001 0 0 1 0 7.42M12 15H8c-1.864 0-2.796 0-3.53.305a4 4 0 0 0-2.166 2.164C2 18.204 2 19.136 2 21M13.5 7a4 4 0 1 1-8 0 4 4 0 0 1 8 0Z"/>
</symbol>
<symbol id="users-edit" viewBox="0 0 24 24">
  <path style="stroke-linecap: round; stroke-linejoin: round;" d="M11 15H8c-1.864 0-2.796 0-3.53.305a4 4 0 0 0-2.166 2.164C2 18.204 2 19.136 2 21M15.5 3.29A4.001 4.001 0 0 1 18 7m-6 14.5 2.025-.405a2.11 2.11 0 0 0 .347-.085.994.994 0 0 0 .207-.111c.073-.05.136-.114.264-.242L21.5 14a1.414 1.414 0 1 0-2-2l-6.658 6.657c-.127.128-.19.191-.241.264a1.001 1.001 0 0 0-.11.207c-.033.082-.05.17-.086.347L12 21.5ZM13.5 7a4 4 0 1 1-8 0 4 4 0 0 1 8 0Z"/>
</symbol>
<symbol id="users-left" viewBox="0 0 24 24">
  <path style="stroke-linecap: round; stroke-linejoin: round;" d="m19 21-3-3m0 0 3-3m-3 3h6M15.5 3.29a4.001 4.001 0 0 1 0 7.42M12 15H8c-1.864 0-2.796 0-3.53.305a4 4 0 0 0-2.166 2.164C2 18.204 2 19.136 2 21M13.5 7a4 4 0 1 1-8 0 4 4 0 0 1 8 0Z"/>
</symbol>
<symbol id="users-minus" viewBox="0 0 24 24">
  <path style="stroke-linecap: round; stroke-linejoin: round;" d="M16 18h6M15.5 3.29a4.001 4.001 0 0 1 0 7.42M12 15H8c-1.864 0-2.796 0-3.53.305a4 4 0 0 0-2.166 2.164C2 18.204 2 19.136 2 21M13.5 7a4 4 0 1 1-8 0 4 4 0 0 1 8 0Z"/>
</symbol>
<symbol id="users-plus" viewBox="0 0 24 24">
  <path style="stroke-linecap: round; stroke-linejoin: round;" d="M19 21v-6m-3 3h6m-10-3H8c-1.864 0-2.796 0-3.53.305a4 4 0 0 0-2.166 2.164C2 18.204 2 19.136 2 21M15.5 3.29a4.001 4.001 0 0 1 0 7.42M13.5 7a4 4 0 1 1-8 0 4 4 0 0 1 8 0Z"/>
</symbol>
<symbol id="users-right" viewBox="0 0 24 24">
  <path style="stroke-linecap: round; stroke-linejoin: round;" d="m19 21 3-3m0 0-3-3m3 3h-6m-.5-14.71a4.001 4.001 0 0 1 0 7.42M12 15H8c-1.864 0-2.796 0-3.53.305a4 4 0 0 0-2.166 2.164C2 18.204 2 19.136 2 21M13.5 7a4 4 0 1 1-8 0 4 4 0 0 1 8 0Z"/>
</symbol>
<symbol id="users-up" viewBox="0 0 24 24">
  <path style="stroke-linecap: round; stroke-linejoin: round;" d="m16 18 3-3m0 0 3 3m-3-3v6M15.5 3.29a4.001 4.001 0 0 1 0 7.42M12 15H8c-1.864 0-2.796 0-3.53.305a4 4 0 0 0-2.166 2.164C2 18.204 2 19.136 2 21M13.5 7a4 4 0 1 1-8 0 4 4 0 0 1 8 0Z"/>
</symbol>
<symbol id="users-x" viewBox="0 0 24 24">
  <path style="stroke-linecap: round; stroke-linejoin: round;" d="m16.5 16 5 5m0-5-5 5m-1-17.71a4.001 4.001 0 0 1 0 7.42M12 15H8c-1.864 0-2.796 0-3.53.305a4 4 0 0 0-2.166 2.164C2 18.204 2 19.136 2 21M13.5 7a4 4 0 1 1-8 0 4 4 0 0 1 8 0Z"/>
</symbol>
</svg>
